HIERARCHY
ROOT Hips
{
	OFFSET 0.101329 88.952194 2.917683
	CHANNELS 6 Xposition Yposition Zposition Zrotation Yrotation Xrotation 
	JOINT Spine
	{
		OFFSET 0.000000 8.814246 -2.080107
		CHANNELS 3 Zrotation Yrotation Xrotation
		JOINT Spine1
		{
			OFFSET -0.000000 8.844141 0.000000
			CHANNELS 3 Zrotation Yrotation Xrotation
			JOINT Spine2
			{
				OFFSET -0.000000 11.682268 -0.000000
				CHANNELS 3 Zrotation Yrotation Xrotation
				JOINT Spine3
				{
					OFFSET -0.000000 11.746700 -0.000000
					CHANNELS 3 Zrotation Yrotation Xrotation
					JOINT Neck
					{
						OFFSET 0.000000 17.658264 0.000000
						CHANNELS 3 Zrotation Yrotation Xrotation
						JOINT Neck1
						{
							OFFSET 0.000000 5.101515 -0.000000
							CHANNELS 3 Zrotation Yrotation Xrotation
							JOINT Head
							{
								OFFSET -0.000000 5.101515 -0.000000
								CHANNELS 3 Zrotation Yrotation Xrotation
								JOINT HeadEnd
								{
									OFFSET -0.000000 11.655085 -0.000000
									CHANNELS 3 Zrotation Yrotation Xrotation
									End Site
									{
										OFFSET 0.000000 0.000000 0.000000
									}
								}
							}
						}
					}
					JOINT RightShoulder
					{
						OFFSET -2.625389 11.175210 0.000000
						CHANNELS 3 Zrotation Yrotation Xrotation
						JOINT RightArm
						{
							OFFSET -0.000000 10.434715 0.000000
							CHANNELS 3 Zrotation Yrotation Xrotation
							JOINT RightForeArm
							{
								OFFSET -0.000000 29.628420 0.000000
								CHANNELS 3 Zrotation Yrotation Xrotation
								JOINT RightHand
								{
									OFFSET 0.000000 22.857611 -0.000000
									CHANNELS 3 Zrotation Yrotation Xrotation
									JOINT RightHandThumb1
									{
										OFFSET -2.867323 3.959563 2.944291
										CHANNELS 3 Zrotation Yrotation Xrotation
										JOINT RightHandThumb2
										{
											OFFSET 0.000000 3.350399 0.000000
											CHANNELS 3 Zrotation Yrotation Xrotation
											JOINT RightHandThumb3
											{
												OFFSET -0.000000 3.756509 0.000000
												CHANNELS 3 Zrotation Yrotation Xrotation
												JOINT RightHandThumb4
												{
													OFFSET -0.000000 3.147345 -0.000000
													CHANNELS 3 Zrotation Yrotation Xrotation
													End Site
													{
														OFFSET 0.000000 0.000000 0.000000
													}
												}
											}
										}
									}
									JOINT RightHandIndex1
									{
										OFFSET -0.086752 10.030893 2.345280
										CHANNELS 3 Zrotation Yrotation Xrotation
										JOINT RightHandIndex2
										{
											OFFSET 0.000000 4.061090 0.000000
											CHANNELS 3 Zrotation Yrotation Xrotation
											JOINT RightHandIndex3
											{
												OFFSET -0.000000 3.248873 0.000000
												CHANNELS 3 Zrotation Yrotation Xrotation
												JOINT RightHandIndex4
												{
													OFFSET 0.000000 2.639709 -0.000000
													CHANNELS 3 Zrotation Yrotation Xrotation
													End Site
													{
														OFFSET 0.000000 0.000000 0.000000
													}
												}
											}
										}
									}
									JOINT RightHandMiddle1
									{
										OFFSET 0.104102 9.502952 0.006768
										CHANNELS 3 Zrotation Yrotation Xrotation
										JOINT RightHandMiddle2
										{
											OFFSET -0.000000 4.568727 -0.000000
											CHANNELS 3 Zrotation Yrotation Xrotation
											JOINT RightHandMiddle3
											{
												OFFSET 0.000000 3.654981 -0.000000
												CHANNELS 3 Zrotation Yrotation Xrotation
												JOINT RightHandMiddle4
												{
													OFFSET 0.000000 2.741236 -0.000000
													CHANNELS 3 Zrotation Yrotation Xrotation
													End Site
													{
														OFFSET 0.000000 0.000000 0.000000
													}
												}
											}
										}
									}
									JOINT RightHandRing1
									{
										OFFSET 0.086752 8.921708 -2.267442
										CHANNELS 3 Zrotation Yrotation Xrotation
										JOINT RightHandRing2
										{
											OFFSET 0.000000 4.061090 -0.000000
											CHANNELS 3 Zrotation Yrotation Xrotation
											JOINT RightHandRing3
											{
												OFFSET 0.000000 3.654981 -0.000000
												CHANNELS 3 Zrotation Yrotation Xrotation
												JOINT RightHandRing4
												{
													OFFSET -0.000000 2.741236 0.000000
													CHANNELS 3 Zrotation Yrotation Xrotation
													End Site
													{
														OFFSET 0.000000 0.000000 0.000000
													}
												}
											}
										}
									}
									JOINT RightHandPinky1
									{
										OFFSET -0.173504 7.976997 -4.467199
										CHANNELS 3 Zrotation Yrotation Xrotation
										JOINT RightHandPinky2
										{
											OFFSET -0.000000 3.350399 0.000000
											CHANNELS 3 Zrotation Yrotation Xrotation
											JOINT RightHandPinky3
											{
												OFFSET 0.000000 2.842763 -0.000000
												CHANNELS 3 Zrotation Yrotation Xrotation
												JOINT RightHandPinky4
												{
													OFFSET 0.000000 2.639709 -0.000000
													CHANNELS 3 Zrotation Yrotation Xrotation
													End Site
													{
														OFFSET 0.000000 0.000000 0.000000
													}
												}
											}
										}
									}
									JOINT RightForeArmEnd
									{
										OFFSET 0.000000 0.000000 0.000000
										CHANNELS 3 Zrotation Yrotation Xrotation
										End Site
										{
											OFFSET 0.000000 0.000000 0.000000
										}
									}
								}
								JOINT RightArmEnd
								{
									OFFSET 0.000000 0.000000 0.000000
									CHANNELS 3 Zrotation Yrotation Xrotation
									End Site
									{
										OFFSET 0.000000 0.000000 0.000000
									}
								}
							}
						}
					}
					JOINT LeftShoulder
					{
						OFFSET 2.625389 11.175210 0.000000
						CHANNELS 3 Zrotation Yrotation Xrotation
						JOINT LeftArm
						{
							OFFSET 0.000000 10.813635 0.000000
							CHANNELS 3 Zrotation Yrotation Xrotation
							JOINT LeftForeArm
							{
								OFFSET 0.000000 28.724781 0.000000
								CHANNELS 3 Zrotation Yrotation Xrotation
								JOINT LeftHand
								{
									OFFSET 0.644384 25.716167 -0.328871
									CHANNELS 3 Zrotation Yrotation Xrotation
									JOINT LeftHandThumb1
									{
										OFFSET 2.867323 3.959563 2.944291
										CHANNELS 3 Zrotation Yrotation Xrotation
										JOINT LeftHandThumb2
										{
											OFFSET -0.000000 3.350399 -0.000000
											CHANNELS 3 Zrotation Yrotation Xrotation
											JOINT LeftHandThumb3
											{
												OFFSET -0.000000 3.756509 -0.000000
												CHANNELS 3 Zrotation Yrotation Xrotation
												JOINT LeftHandThumb4
												{
													OFFSET -0.000000 3.100000 -0.000000
													CHANNELS 3 Zrotation Yrotation Xrotation
													End Site
													{
														OFFSET 0.000000 0.000000 0.000000
													}
												}
											}
										}
									}
									JOINT LeftHandIndex1
									{
										OFFSET 0.086752 10.030893 2.345280
										CHANNELS 3 Zrotation Yrotation Xrotation
										JOINT LeftHandIndex2
										{
											OFFSET 0.000000 4.061090 -0.000000
											CHANNELS 3 Zrotation Yrotation Xrotation
											JOINT LeftHandIndex3
											{
												OFFSET 0.000000 3.248873 0.000000
												CHANNELS 3 Zrotation Yrotation Xrotation
												JOINT LeftHandIndex4
												{
													OFFSET 0.000000 2.639709 -0.000000
													CHANNELS 3 Zrotation Yrotation Xrotation
													End Site
													{
														OFFSET 0.000000 0.000000 0.000000
													}
												}
											}
										}
									}
									JOINT LeftHandMiddle1
									{
										OFFSET -0.104102 9.502952 0.006768
										CHANNELS 3 Zrotation Yrotation Xrotation
										JOINT LeftHandMiddle2
										{
											OFFSET -0.000000 4.568727 -0.000000
											CHANNELS 3 Zrotation Yrotation Xrotation
											JOINT LeftHandMiddle3
											{
												OFFSET 0.000000 3.654981 -0.000000
												CHANNELS 3 Zrotation Yrotation Xrotation
												JOINT LeftHandMiddle4
												{
													OFFSET -0.000000 2.741236 -0.000000
													CHANNELS 3 Zrotation Yrotation Xrotation
													End Site
													{
														OFFSET 0.000000 0.000000 0.000000
													}
												}
											}
										}
									}
									JOINT LeftHandRing1
									{
										OFFSET -0.086752 8.921708 -2.267442
										CHANNELS 3 Zrotation Yrotation Xrotation
										JOINT LeftHandRing2
										{
											OFFSET 0.000000 4.061090 0.000000
											CHANNELS 3 Zrotation Yrotation Xrotation
											JOINT LeftHandRing3
											{
												OFFSET -0.000000 3.654981 0.000000
												CHANNELS 3 Zrotation Yrotation Xrotation
												JOINT LeftHandRing4
												{
													OFFSET -0.000000 2.741236 -0.000000
													CHANNELS 3 Zrotation Yrotation Xrotation
													End Site
													{
														OFFSET 0.000000 0.000000 0.000000
													}
												}
											}
										}
									}
									JOINT LeftHandPinky1
									{
										OFFSET 0.173504 7.976997 -4.467199
										CHANNELS 3 Zrotation Yrotation Xrotation
										JOINT LeftHandPinky2
										{
											OFFSET 0.000000 3.350399 0.000000
											CHANNELS 3 Zrotation Yrotation Xrotation
											JOINT LeftHandPinky3
											{
												OFFSET 0.000000 2.842763 0.000000
												CHANNELS 3 Zrotation Yrotation Xrotation
												JOINT LeftHandPinky4
												{
													OFFSET 0.000000 2.639709 0.000000
													CHANNELS 3 Zrotation Yrotation Xrotation
													End Site
													{
														OFFSET 0.000000 0.000000 0.000000
													}
												}
											}
										}
									}
									JOINT LeftForeArmEnd
									{
										OFFSET 0.000000 0.000000 0.000000
										CHANNELS 3 Zrotation Yrotation Xrotation
										End Site
										{
											OFFSET 0.000000 0.000000 0.000000
										}
									}
								}
								JOINT LeftArmEnd
								{
									OFFSET 0.000000 0.000000 0.000000
									CHANNELS 3 Zrotation Yrotation Xrotation
									End Site
									{
										OFFSET 0.000000 0.000000 0.000000
									}
								}
							}
						}
					}
				}
			}
		}
	}
	JOINT RightUpLeg
	{
		OFFSET -11.289943 0.000000 0.000000
		CHANNELS 3 Zrotation Yrotation Xrotation
		JOINT RightLeg
		{
			OFFSET -0.000000 -38.200325 -0.000000
			CHANNELS 3 Zrotation Yrotation Xrotation
			JOINT RightFoot
			{
				OFFSET 0.000000 -39.900856 0.000000
				CHANNELS 3 Zrotation Yrotation Xrotation
				JOINT RightToeBase
				{
					OFFSET -0.000000 -0.000000 15.261641
					CHANNELS 3 Zrotation Yrotation Xrotation
					JOINT RightToeBaseEnd
					{
						OFFSET 0.000000 0.000000 7.370709
						CHANNELS 3 Zrotation Yrotation Xrotation
						End Site
						{
							OFFSET 0.000000 0.000000 0.000000
						}
					}
				}
				JOINT RightLegEnd
				{
					OFFSET 0.000000 0.000000 0.000000
					CHANNELS 3 Zrotation Yrotation Xrotation
					End Site
					{
						OFFSET 0.000000 0.000000 0.000000
					}
				}
			}
			JOINT RightUpLegEnd
			{
				OFFSET 0.000000 0.000000 0.000000
				CHANNELS 3 Zrotation Yrotation Xrotation
				End Site
				{
					OFFSET 0.000000 0.000000 0.000000
				}
			}
		}
	}
	JOINT LeftUpLeg
	{
		OFFSET 11.315661 -0.000000 0.000000
		CHANNELS 3 Zrotation Yrotation Xrotation
		JOINT LeftLeg
		{
			OFFSET -0.000000 -38.200325 -0.000000
			CHANNELS 3 Zrotation Yrotation Xrotation
			JOINT LeftFoot
			{
				OFFSET 0.000000 -39.900856 0.000000
				CHANNELS 3 Zrotation Yrotation Xrotation
				JOINT LeftToeBase
				{
					OFFSET 0.000000 0.000000 15.261641
					CHANNELS 3 Zrotation Yrotation Xrotation
					JOINT LeftToeBaseEnd
					{
						OFFSET -0.000000 0.000000 7.539996
						CHANNELS 3 Zrotation Yrotation Xrotation
						End Site
						{
							OFFSET 0.000000 0.000000 0.000000
						}
					}
				}
				JOINT LeftLegEnd
				{
					OFFSET 0.000000 0.000000 0.000000
					CHANNELS 3 Zrotation Yrotation Xrotation
					End Site
					{
						OFFSET 0.000000 0.000000 0.000000
					}
				}
			}
			JOINT LeftUpLegEnd
			{
				OFFSET 0.000000 0.000000 0.000000
				CHANNELS 3 Zrotation Yrotation Xrotation
				End Site
				{
					OFFSET 0.000000 0.000000 0.000000
				}
			}
		}
	}
}
MOTION
Frames: 5
Frame Time: 0.016667
2.425830 88.111755 5.167926 -2.205111 5.895875 -10.943588 1.885884 0.200262 6.417659 -1.118222 0.550742 2.618213 -0.461028 1.178260 6.598438 -1.669236 0.637382 4.530440 6.361311 -5.344585 4.455309 0.389975 -2.617692 -4.006003 0.294270 -1.270046 -17.730906 0.000000 0.000000 0.000000 85.260117 0.772643 10.980010 60.888279 -25.722343 -3.110815 -0.694461 18.383232 106.152138 -9.668458 14.466777 10.123032 26.946245 -1.317838 33.916435 -0.000020 0.000011 -66.212845 -0.000007 0.000041 -45.958096 -0.000005 -0.000018 -0.000014 98.782768 -0.163651 -0.714269 66.871040 1.469969 -1.255229 66.991302 1.484975 -0.985119 -0.000004 0.000022 -0.000012 96.427406 -0.084623 4.177407 65.832870 0.530623 -0.562707 65.996071 0.484506 -0.419145 -0.000016 0.000149 0.000000 98.872993 0.061571 9.881146 68.888161 -1.017135 0.523375 68.973427 -0.637575 0.429626 0.000009 -0.002085 -0.000012 93.994835 0.333155 14.577249 66.787277 -2.924189 1.497609 67.003334 -2.462883 1.226497 -0.000902 -0.000004 0.000015 0.000000 0.000000 0.000000 0.000000 0.000000 0.000000 -84.132324 0.154654 5.341134 -70.731758 20.693518 -16.358562 0.738059 -15.191965 109.690178 7.710418 -16.648291 14.730858 -28.457418 1.443382 32.803879 0.000007 0.000015 -68.654602 -0.000117 -0.000003 -48.090458 -0.000365 -0.000000 -0.005341 -96.163994 -0.180757 -6.396733 -67.009018 0.728857 1.007240 -67.286331 0.774069 0.735788 0.000046 0.001916 0.000029 -93.662338 -0.052647 -2.010772 -66.123627 0.244045 0.439360 -66.159531 0.196599 0.322308 -0.000047 -0.000034 0.000247 -98.580246 0.133283 2.366032 -69.282372 -0.448110 -0.574652 -69.368805 -0.349196 -0.361443 0.000897 0.000004 0.000007 -100.159714 0.506487 8.354178 -67.950417 -1.505409 -1.537893 -68.695534 -1.263925 -0.942212 0.000808 0.000013 -0.000039 0.000000 0.000000 0.000000 0.000000 0.000000 0.000000 -5.564569 -14.899324 12.924550 -0.203535 -1.035490 7.380105 2.495103 -10.837174 18.111696 -0.971490 1.439240 -18.833622 0.000000 0.000000 0.000000 0.000000 0.000000 0.000000 0.000000 0.000000 0.000000 7.155433 -4.728744 4.922597 0.233122 0.720968 12.408370 -1.315885 0.512653 16.103775 0.951059 -0.735209 -19.910681 0.000000 0.000000 0.000000 0.000000 0.000000 0.000000 0.000000 0.000000 0.000000 
2.447775 88.094254 5.230620 -2.203053 5.717630 -10.870153 1.903699 0.193000 6.416159 -1.129465 0.556080 2.572763 -0.444022 1.165370 6.621541 -1.604612 0.639911 4.468844 6.319057 -5.291260 4.378547 0.400634 -2.533159 -4.081501 0.272385 -1.279364 -17.688639 0.000000 0.000000 0.000000 85.140335 0.788168 11.002879 60.603848 -26.438086 -3.390737 -0.688032 18.141037 105.868103 -10.156944 14.260471 10.285490 26.826496 -1.321666 33.970982 -0.000019 0.000012 -65.930740 -0.000007 0.000041 -45.753613 -0.000005 -0.000018 -0.000015 98.381439 -0.165869 -0.513486 66.550499 1.453463 -1.226684 66.673660 1.467913 -0.959425 -0.000004 0.000020 -0.000013 96.008255 -0.084273 4.318755 65.500839 0.524100 -0.551115 65.674507 0.479122 -0.408659 -0.000015 0.000165 0.000001 98.456757 0.059763 10.022100 68.529709 -1.003456 0.508683 68.623100 -0.628336 0.418011 0.000008 -0.002123 -0.000011 93.652328 0.321387 14.672969 66.455475 -2.881742 1.452262 66.663101 -2.427941 1.191079 -0.000912 -0.000004 0.000013 0.000000 0.000000 0.000000 0.000000 0.000000 0.000000 -83.954781 0.164448 5.227737 -70.415619 21.332207 -16.719965 0.717399 -15.063324 109.645927 7.474419 -15.532565 14.646778 -28.460558 1.436503 32.812416 0.000006 0.000015 -68.692368 -0.000108 -0.000002 -48.102726 -0.000349 0.000000 -0.005455 -96.393776 -0.179585 -6.451754 -67.129204 0.720214 1.001878 -67.404419 0.764924 0.730525 0.000046 0.002001 0.000030 -93.885086 -0.051649 -2.016011 -66.258652 0.241511 0.436632 -66.290688 0.193983 0.319175 -0.000298 -0.000035 0.000250 -98.837753 0.131372 2.405380 -69.470200 -0.442198 -0.569228 -69.552704 -0.345090 -0.359191 0.000897 0.000004 0.000007 -100.427910 0.492572 8.403765 -68.183472 -1.486252 -1.526238 -68.910271 -1.246738 -0.937869 0.000792 0.000013 -0.000039 0.000000 0.000000 0.000000 0.000000 0.000000 0.000000 -5.560652 -14.805744 12.769114 -0.203206 -1.038016 7.401766 2.482831 -10.763546 18.230373 -0.968222 1.429479 -18.903389 0.000000 0.000000 0.000000 0.000000 0.000000 0.000000 0.000000 0.000000 0.000000 7.133193 -4.687603 4.837338 0.230579 0.711499 12.490463 -1.274731 0.702299 16.178112 0.941140 -0.720441 -20.032604 0.000000 0.000000 0.000000 0.000000 0.000000 0.000000 0.000000 0.000000 0.000000 
2.466539 88.078987 5.292018 -2.204993 5.515414 -10.791865 1.922290 0.185095 6.417680 -1.140879 0.560583 2.525363 -0.429137 1.153472 6.645923 -1.549288 0.644421 4.411971 6.293330 -5.244780 4.302182 0.413552 -2.458013 -4.154445 0.253155 -1.289629 -17.639610 0.000000 0.000000 0.000000 85.014206 0.805831 11.053998 60.368187 -27.192509 -3.594880 -0.683745 17.876837 105.553200 -10.608541 14.003558 10.390616 26.708090 -1.325483 34.025440 -0.000019 0.000013 -65.647491 -0.000006 0.000041 -45.548866 -0.000005 -0.000018 -0.000016 97.966034 -0.167486 -0.324278 66.224342 1.436245 -1.199424 66.350945 1.450067 -0.935376 -0.000004 0.000019 -0.000014 95.570778 -0.083762 4.452060 65.160568 0.517363 -0.539655 65.343636 0.473412 -0.398411 -0.000015 0.000182 0.000001 98.015266 0.057870 10.152554 68.152328 -0.988819 0.493215 68.254211 -0.618625 0.405682 0.000008 -0.002177 -0.000011 93.277473 0.310173 14.760199 66.100212 -2.836607 1.401062 66.299904 -2.390755 1.150987 -0.000929 -0.000004 0.000012 0.000000 0.000000 0.000000 0.000000 0.000000 0.000000 -83.786118 0.170114 5.140844 -70.142540 22.008652 -17.045158 0.694826 -14.877384 109.625015 7.288639 -14.418324 14.589302 -28.461245 1.430711 32.820961 0.000006 0.000016 -68.718239 -0.000100 -0.000001 -48.108051 -0.000346 0.000000 -0.005537 -96.579514 -0.178055 -6.489750 -67.224014 0.711178 0.995957 -67.497421 0.755528 0.725050 0.000047 0.002063 0.000030 -94.066566 -0.050495 -2.010524 -66.364990 0.238899 0.433516 -66.393036 0.191318 0.315915 -0.000530 -0.000037 0.000253 -99.048355 0.129487 2.447143 -69.620346 -0.436152 -0.562590 -69.698265 -0.340835 -0.355996 0.000862 0.000004 0.000008 -100.652107 0.479944 8.458231 -68.373398 -1.466290 -1.508872 -69.081398 -1.228798 -0.929249 0.000765 0.000012 -0.000040 0.000000 0.000000 0.000000 0.000000 0.000000 0.000000 -5.552826 -14.690816 12.611089 -0.202768 -1.040614 7.424320 2.470603 -10.672997 18.359882 -0.965025 1.421981 -18.979746 0.000000 0.000000 0.000000 0.000000 0.000000 0.000000 0.000000 0.000000 0.000000 7.112896 -4.647353 4.752783 0.227877 0.701152 12.578351 -1.242739 0.897802 16.243116 0.931958 -0.707228 -20.144602 0.000000 0.000000 0.000000 0.000000 0.000000 0.000000 0.000000 0.000000 0.000000 
2.482583 88.064529 5.352652 -2.209417 5.295571 -10.714241 1.938709 0.177324 6.423614 -1.151777 0.563895 2.478202 -0.416583 1.140043 6.672635 -1.501773 0.648939 4.359382 6.285075 -5.202166 4.228513 0.429515 -2.390283 -4.223718 0.236245 -1.300115 -17.586105 0.000000 0.000000 0.000000 84.900444 0.823735 11.127135 60.191654 -27.976385 -3.722934 -0.682157 17.604202 105.198776 -11.020519 13.686455 10.439099 26.590788 -1.330288 34.078415 -0.000019 0.000014 -65.360580 -0.000006 0.000041 -45.343475 -0.000005 -0.000017 -0.000017 97.514793 -0.168461 -0.166040 65.882668 1.418196 -1.173771 66.013054 1.431418 -0.913128 -0.000003 0.000018 -0.000014 95.094109 -0.083110 4.558225 64.802917 0.510378 -0.528552 64.994347 0.467384 -0.388615 -0.000015 0.000198 0.000002 97.527397 0.056007 10.252028 67.748390 -0.973209 0.477395 67.859184 -0.608463 0.393019 0.000007 -0.002235 -0.000011 92.854774 0.299758 14.815631 65.715729 -2.788748 1.346132 65.907951 -2.351286 1.108169 -0.000952 -0.000005 0.000010 0.000000 0.000000 0.000000 0.000000 0.000000 0.000000 -83.637566 0.173080 5.084632 -69.914658 22.719625 -17.322269 0.673488 -14.646586 109.611359 7.167078 -13.336139 14.548075 -28.455847 1.426505 32.830521 0.000005 0.000016 -68.724068 -0.000093 0.000000 -48.100758 -0.000362 0.000000 -0.005593 -96.703896 -0.176292 -6.515563 -67.281151 0.701632 0.989728 -67.552887 0.745756 0.719581 0.000047 0.002103 0.000031 -94.188240 -0.049279 -1.999824 -66.430405 0.236152 0.430170 -66.454445 0.188580 0.312681 -0.000737 -0.000038 0.000257 -99.186714 0.127654 2.483120 -69.719933 -0.429892 -0.555196 -69.792648 -0.336389 -0.352147 0.000799 0.000004 0.000008 -100.801414 0.468391 8.505471 -68.508781 -1.445248 -1.487653 -69.197571 -1.209985 -0.917635 0.000733 0.000012 -0.000041 0.000000 0.000000 0.000000 0.000000 0.000000 0.000000 -5.545015 -14.558112 12.462263 -0.202376 -1.043589 7.441518 2.464091 -10.569150 18.490797 -0.962350 1.416961 -19.059210 0.000000 0.000000 0.000000 0.000000 0.000000 0.000000 0.000000 0.000000 0.000000 7.092531 -4.603547 4.674927 0.225126 0.690973 12.672410 -1.219755 1.088196 16.288422 0.923500 -0.696225 -20.243423 0.000000 0.000000 0.000000 0.000000 0.000000 0.000000 0.000000 0.000000 0.000000 
2.496241 88.049698 5.413179 -2.215086 5.063506 -10.642507 1.951113 0.170222 6.434674 -1.161906 0.566190 2.433043 -0.405914 1.122674 6.700326 -1.460531 0.652022 4.310276 6.294462 -5.160761 4.162251 0.449471 -2.326807 -4.286469 0.221166 -1.310480 -17.530479 0.000000 0.000000 0.000000 84.811325 0.841038 11.218176 60.082848 -28.786343 -3.783934 -0.683748 17.331869 104.803406 -11.393810 13.305954 10.422200 26.474998 -1.336627 34.128777 -0.000019 0.000015 -65.070412 -0.000006 0.000040 -45.138290 -0.000004 -0.000017 -0.000017 97.016708 -0.168788 -0.048351 65.521584 1.399287 -1.149648 65.655891 1.412004 -0.892492 -0.000003 0.000017 -0.000015 94.569084 -0.082336 4.626216 64.424721 0.503131 -0.517893 64.623711 0.461056 -0.379325 -0.000015 0.000213 0.000002 96.986931 0.054230 10.308937 67.317955 -0.956689 0.461483 67.437851 -0.597886 0.380258 0.000007 -0.002290 -0.000010 92.383423 0.290187 14.825734 65.304306 -2.738337 1.289083 65.489235 -2.309679 1.064024 -0.000978 -0.000005 0.000008 0.000000 0.000000 0.000000 0.000000 0.000000 0.000000 -83.516701 0.174031 5.060025 -69.735733 23.463419 -17.540571 0.655891 -14.385153 109.585899 7.112589 -12.313100 14.497960 -28.443081 1.423917 32.841648 0.000005 0.000016 -68.708206 -0.000086 0.000001 -48.079391 -0.000397 0.000000 -0.005630 -96.764183 -0.174341 -6.535861 -67.298920 0.691539 0.983301 -67.568916 0.735559 0.714159 0.000048 0.002124 0.000031 -94.247292 -0.048053 -1.990363 -66.453560 0.233230 0.426680 -66.473633 0.185758 0.309537 -0.000924 -0.000039 0.000262 -99.250488 0.125895 2.506950 -69.768921 -0.423385 -0.547424 -69.836037 -0.331742 -0.347899 0.000716 0.000004 0.000008 -100.871857 0.457695 8.536884 -68.591171 -1.423098 -1.464247 -69.260597 -1.190372 -0.904214 0.000700 0.000012 -0.000041 0.000000 0.000000 0.000000 0.000000 0.000000 0.000000 -5.539455 -14.410977 12.329015 -0.202166 -1.047138 7.453574 2.466386 -10.455159 18.615170 -0.960352 1.414205 -19.138422 0.000000 0.000000 0.000000 0.000000 0.000000 0.000000 0.000000 0.000000 0.000000 7.070440 -4.553009 4.609075 0.222380 0.681408 12.773172 -1.203629 1.267794 16.308170 0.915572 -0.687357 -20.327837 0.000000 0.000000 0.000000 0.000000 0.000000 0.000000 0.000000 0.000000 0.000000 
